<svg xmlns="http://www.w3.org/2000/svg" viewBox="0 0 624 200"><path fill="#151632" d="M172.2 73v66.4h-20.7V73h-27.4V54.8h75.5V73h-27.4zM272.8 100.5v38.9h-20.1v-34.6c0-7.4-4.4-12.5-11-12.5-7.8 0-13 5.4-13 17.7v29.4h-20.2V48.5h20.2V82c4.9-5 11.5-7.9 19.6-7.9 14.7 0 24.5 10.5 24.5 26.4zM356.3 112.8h-46.4c1.6 7.6 6.8 12.2 13.6 12.2 4.7 0 10.1-1.1 13.5-7.3l17.9 3.7c-5.4 13.4-16.9 19.8-31.4 19.8-18.3 0-33.4-13.5-33.4-33.6 0-19.9 15.1-33.6 33.6-33.6 17.9 0 32.3 12.9 32.7 33.6v5.2zm-46-12.3h26.1c-1.9-6.8-6.9-10-12.7-10-5.7 0-11.5 3.5-13.4 10z"/><path fill="#F3D02F" d="M445.5 139.3h-20.7v-33.4h-35.6v33.4h-20.8V54.8h20.8v32.9h35.6V54.8h20.7v84.5zM478.6 57.3c0 6.4-4.9 11.2-11.7 11.2-6.8 0-11.6-4.8-11.6-11.2 0-6.2 4.8-11.5 11.6-11.5s11.7 5.3 11.7 11.5zm-21.8 82V76H477v63.3h-20.2zM528.5 139.3h-20.6l-26.2-63.5H503l15.3 39.1 15.1-39.1h21.3l-26.2 63.5zM618.3 112.8h-46.4c1.6 7.6 6.8 12.2 13.6 12.2 4.7 0 10.1-1.1 13.5-7.3l17.9 3.7c-5.4 13.4-16.9 19.8-31.4 19.8-18.3 0-33.4-13.5-33.4-33.6 0-19.9 15.1-33.6 33.6-33.6 17.9 0 32.3 12.9 32.7 33.6v5.2zm-46.1-12.3h26.1c-1.9-6.8-6.9-10-12.7-10-5.7 0-11.5 3.5-13.4 10z"/><g><path fill="#F3D02F" d="M57 70.3c6.6 0 12.2 6.4 12.2 11.5 0 6.1-10 6.6-12 6.6-2.2 0-12-.3-12-6.6-.4-5.1 5.2-11.5 11.8-11.5zm-12.9 63.3l25.2.1 2.2 5.6-29.6-.1 2.2-5.6zm3.5-8l2.2-5.6H64l2.2 5.6H47.6zm5.4-13.5l3.9-9.5 3.9 9.5H53zm-29.7 31.5c-1.7 0-3.2-.3-4.6-1-6.1-2.7-9.3-9.8-6.5-15.9 6.9-16.6 27.7-28.5 39-30.2l-7.4 18.1-5.5 13.4-3.5 8.1c-2.2 4.6-6.6 7.5-11.5 7.5zm33.4 18.2c-8.1 0-14.7-5.9-17.3-15l34.7.1c-2.7 9.3-9.3 14.9-17.4 14.9zM95 142.9c-1.5.7-3.2 1-4.6 1-4.9 0-9.3-3-11.2-7.6l-3.4-8.1-5.1-12.7c0-.5-.2-1-.5-1.5l-7-17.6c11.2 2 32 14 38.8 30.5 2.3 6.4-.7 13.5-7 16z"/><path fill="none" stroke="#F3D02F" stroke-width="5.215" stroke-linecap="round" stroke-miterlimit="10" d="M47.8 67.5l-4.1-8.6M66.1 67.5l4-8.6"/><path fill="none" stroke="#F3D02F" stroke-width="5.215" stroke-linecap="round" stroke-linejoin="round" stroke-miterlimit="10" d="M94.8 103.5l10.7-19.3-24.4-42.1H32.7L8.3 84.2 20 103.5"/></g></svg>